<svg width="830" height="287" viewBox="0 0 830 287" fill="none" xmlns="http://www.w3.org/2000/svg">
<path d="M119.446 214.916C123.321 223.815 128.273 228.407 134.3 228.694V233C128.56 232.569 120.881 232.354 111.265 232.354C98.922 232.354 89.7365 232.569 83.7085 233V228.694C89.0189 228.407 92.894 227.69 95.3339 226.541C97.9173 225.393 99.209 223.456 99.209 220.729C99.209 218.432 98.2044 215.06 96.1951 210.61L85.2155 186.068H32.9013L25.5816 202.214C23.1417 207.812 21.9218 212.404 21.9218 215.992C21.9218 219.724 23.2135 222.666 25.7969 224.819C28.5238 226.828 32.8295 228.12 38.714 228.694V233C34.4083 232.569 27.878 232.354 19.1231 232.354C10.3681 232.354 4.12487 232.569 0.393269 233V228.694C4.2684 227.69 7.56943 225.537 10.2964 222.236C13.0233 218.791 15.6067 214.27 18.0466 208.673L65.6246 101.03H69.0692L119.446 214.916ZM83.4932 181.762L59.166 127.08L34.6236 181.762H83.4932ZM263.878 106.412C258.855 106.7 255.124 107.489 252.684 108.781C250.244 109.929 248.593 111.938 247.732 114.809C246.871 117.536 246.44 121.626 246.44 127.08V174.658C246.44 184.561 245.723 193.029 244.288 200.061C242.996 206.951 240.771 212.979 237.614 218.145C234.169 223.599 229.146 227.977 222.544 231.278C216.085 234.435 208.694 236.014 200.369 236.014C185.586 236.014 174.248 232.856 166.354 226.541C160.039 220.944 155.805 214.557 153.653 207.381C151.5 200.205 150.423 189.512 150.423 175.304V124.927C150.423 119.473 149.993 115.526 149.132 113.086C148.27 110.646 146.62 108.996 144.18 108.135C141.884 107.274 138.152 106.7 132.985 106.412V102.107C139.013 102.537 148.199 102.753 160.542 102.753C172.024 102.753 181.137 102.537 187.883 102.107V106.412C182.716 106.7 178.913 107.274 176.473 108.135C174.176 108.996 172.598 110.646 171.737 113.086C170.875 115.526 170.445 119.473 170.445 124.927V178.963C170.445 189.584 171.162 198.411 172.598 205.444C174.033 212.333 177.047 217.93 181.64 222.236C186.376 226.398 193.265 228.479 202.307 228.479C216.659 228.479 226.778 223.958 232.662 214.916C238.547 205.874 241.489 193.244 241.489 177.026V127.08C241.489 119.33 240.054 114.019 237.183 111.149C234.456 108.278 229.361 106.7 221.898 106.412V102.107C227.065 102.537 234.384 102.753 243.857 102.753C252.468 102.753 259.142 102.537 263.878 102.107V106.412ZM405.364 223.958C402.637 227.833 399.48 230.847 395.892 233C392.447 235.009 388.285 236.014 383.405 236.014C371.349 236.014 363.958 230.56 361.231 219.652L354.557 192.742C352.548 184.704 349.534 179.322 345.515 176.595C341.64 173.868 335.827 172.505 328.077 172.505H315.806V210.18C315.806 215.634 316.236 219.581 317.098 222.02C317.959 224.46 319.537 226.111 321.834 226.972C324.274 227.833 328.077 228.407 333.244 228.694V233C326.642 232.569 317.528 232.354 305.903 232.354C293.56 232.354 284.374 232.569 278.346 233V228.694C283.513 228.407 287.245 227.833 289.541 226.972C291.981 226.111 293.631 224.46 294.493 222.02C295.354 219.581 295.784 215.634 295.784 210.18V124.927C295.784 119.473 295.354 115.526 294.493 113.086C293.631 110.646 291.981 108.996 289.541 108.135C287.245 107.274 283.513 106.7 278.346 106.412V102.107C284.374 102.537 293.129 102.753 304.611 102.753L326.57 102.537C329.01 102.394 331.809 102.322 334.966 102.322C351.041 102.322 363.312 105.336 371.78 111.364C380.391 117.392 384.697 125.214 384.697 134.83C384.697 143.154 381.324 150.761 374.579 157.65C367.977 164.539 357.069 168.917 341.855 170.783C344.726 171.07 347.166 171.357 349.175 171.644C356.782 172.792 362.81 175.088 367.259 178.533C371.708 181.977 374.866 187.503 376.731 195.11L381.468 214.701C382.616 219.724 383.836 223.312 385.128 225.465C386.563 227.474 388.357 228.479 390.51 228.479C394.098 228.479 398.045 226.039 402.35 221.159L405.364 223.958ZM329.584 106.412C325.709 106.412 322.767 106.915 320.757 107.919C318.892 108.924 317.6 110.718 316.882 113.302C316.165 115.885 315.806 119.76 315.806 124.927V168.199H330.23C342.86 168.199 351.471 165.544 356.064 160.234C360.8 154.78 363.169 147.101 363.169 137.198C363.169 126.865 360.513 119.186 355.203 114.163C350.036 108.996 341.496 106.412 329.584 106.412ZM698.017 223.958C695.29 227.833 692.133 230.847 688.545 233C685.1 235.009 680.938 236.014 676.058 236.014C664.002 236.014 656.611 230.56 653.884 219.652L647.21 192.742C645.201 184.704 642.187 179.322 638.168 176.595C634.293 173.868 628.48 172.505 620.73 172.505H608.459V210.18C608.459 215.634 608.889 219.581 609.75 222.02C610.612 224.46 612.19 226.111 614.487 226.972C616.927 227.833 620.73 228.407 625.897 228.694V233C619.295 232.569 610.181 232.354 598.556 232.354C586.213 232.354 577.027 232.569 570.999 233V228.694C576.166 228.407 579.898 227.833 582.194 226.972C584.634 226.111 586.284 224.46 587.146 222.02C588.007 219.581 588.437 215.634 588.437 210.18V124.927C588.437 119.473 588.007 115.526 587.146 113.086C586.284 110.646 584.634 108.996 582.194 108.135C579.898 107.274 576.166 106.7 570.999 106.412V102.107C577.027 102.537 585.782 102.753 597.264 102.753L619.223 102.537C621.663 102.394 624.462 102.322 627.619 102.322C643.694 102.322 655.965 105.336 664.433 111.364C673.044 117.392 677.35 125.214 677.35 134.83C677.35 143.154 673.977 150.761 667.232 157.65C660.629 164.539 649.722 168.917 634.508 170.783C637.379 171.07 639.819 171.357 641.828 171.644C649.435 172.792 655.463 175.088 659.912 178.533C664.361 181.977 667.519 187.503 669.384 195.11L674.121 214.701C675.269 219.724 676.489 223.312 677.78 225.465C679.216 227.474 681.01 228.479 683.163 228.479C686.751 228.479 690.698 226.039 695.003 221.159L698.017 223.958ZM622.237 106.412C618.362 106.412 615.42 106.915 613.41 107.919C611.545 108.924 610.253 110.718 609.535 113.302C608.818 115.885 608.459 119.76 608.459 124.927V168.199H622.883C635.513 168.199 644.124 165.544 648.717 160.234C653.453 154.78 655.821 147.101 655.821 137.198C655.821 126.865 653.166 119.186 647.856 114.163C642.689 108.996 634.149 106.412 622.237 106.412ZM814.707 214.916C818.582 223.815 823.533 228.407 829.561 228.694V233C823.82 232.569 816.142 232.354 806.526 232.354C794.183 232.354 784.997 232.569 778.969 233V228.694C784.28 228.407 788.155 227.69 790.595 226.541C793.178 225.393 794.47 223.456 794.47 220.729C794.47 218.432 793.465 215.06 791.456 210.61L780.476 186.068H728.162L720.842 202.214C718.403 207.812 717.183 212.404 717.183 215.992C717.183 219.724 718.474 222.666 721.058 224.819C723.785 226.828 728.09 228.12 733.975 228.694V233C729.669 232.569 723.139 232.354 714.384 232.354C705.629 232.354 699.386 232.569 695.654 233V228.694C699.529 227.69 702.83 225.537 705.557 222.236C708.284 218.791 710.868 214.27 713.307 208.673L760.885 101.03H764.33L814.707 214.916ZM778.754 181.762L754.427 127.08L729.884 181.762H778.754Z" fill="white"/>
<path d="M483.754 240C460.828 221.335 435.877 199.73 413.804 178.237C406.02 170.432 399.089 159.233 397.703 147.129C394.504 119.981 413.164 92.4929 438.756 90.2306C457.629 88.8731 473.411 102.221 483.754 117.718C494.204 102.334 510.092 88.9862 529.072 90.5699C554.877 92.7192 574.07 120.32 570.552 147.921C569.059 160.251 561.701 171.45 553.917 179.029C531.845 200.295 506.68 221.788 483.861 240H483.754ZM483.754 231.516C504.334 207.987 522.461 187.739 543.894 167.038C550.185 160.59 554.77 154.143 556.05 145.433C558.822 128.804 549.439 109.461 533.871 102.561C516.49 94.3028 497.403 105.841 483.754 117.718C470.425 105.275 451.338 93.0585 433.638 101.316C417.75 108.33 408.153 128.012 410.925 145.093C413.911 163.984 431.931 174.278 443.341 187.513C456.67 201.2 469.785 215.906 483.754 231.516Z" fill="white"/>
<rect x="480.18" y="124.352" width="8.95336" height="74.6113" fill="white"/>
<rect x="521.961" y="157.181" width="8.95336" height="74.6113" transform="rotate(90 521.961 157.181)" fill="white"/>
</svg>
