<svg width="491" height="144" viewBox="0 0 491 144" fill="none" xmlns="http://www.w3.org/2000/svg">
<rect x="0.5" y="0.5" width="490" height="143" rx="29.5" fill="#EBFEEC" stroke="black"/>
<path d="M35.6255 49.375H42.3755V43.75H48.0005V37H42.3755V31.375H35.6255V37H30.0005V43.75H35.6255V49.375ZM27.7505 57.25C26.513 57.25 25.454 56.8098 24.5735 55.9293C23.693 55.0488 23.252 53.989 23.2505 52.75V28C23.2505 26.7625 23.6915 25.7035 24.5735 24.823C25.4555 23.9425 26.5145 23.5015 27.7505 23.5H50.2505C51.488 23.5 52.5477 23.941 53.4297 24.823C54.3117 25.705 54.752 26.764 54.7505 28V52.75C54.7505 53.9875 54.3102 55.0473 53.4297 55.9293C52.5492 56.8113 51.4895 57.2515 50.2505 57.25H27.7505ZM25.5005 21.25V16.75H52.5005V21.25H25.5005Z" fill="black"/>
<path d="M75.0391 25.4141C75.0391 25.0495 75.1758 24.7174 75.4492 24.418C75.7227 24.1055 76.0742 23.9492 76.5039 23.9492C76.7643 23.9492 77.0182 24.0339 77.2656 24.2031C77.513 24.3724 77.7018 24.5677 77.832 24.7891L88.7305 42.6211L99.7461 24.6719C100.033 24.2031 100.449 23.9688 100.996 23.9688C101.4 23.9688 101.745 24.112 102.031 24.3984C102.318 24.6849 102.461 25.0299 102.461 25.4336V49.9062C102.461 50.3099 102.318 50.6549 102.031 50.9414C101.745 51.2279 101.4 51.3711 100.996 51.3711C100.592 51.3711 100.247 51.2279 99.9609 50.9414C99.6745 50.6549 99.5312 50.3099 99.5312 49.9062V30.6289L89.9805 46.1953C89.694 46.6641 89.2773 46.8984 88.7305 46.8984C88.1836 46.8984 87.7669 46.6641 87.4805 46.1953L77.9688 30.6484V49.8281C77.9688 50.2318 77.8255 50.5768 77.5391 50.8633C77.2526 51.1497 76.9076 51.293 76.5039 51.293C76.1003 51.293 75.7552 51.1497 75.4688 50.8633C75.1823 50.5768 75.0391 50.2318 75.0391 49.8281V25.4141ZM116.875 51.3906C114.987 51.3906 113.275 50.9219 111.738 49.9844C110.215 49.0469 109.004 47.7969 108.105 46.2344C107.207 44.6589 106.758 42.9336 106.758 41.0586C106.758 39.2747 107.181 37.6276 108.027 36.1172C108.887 34.5938 110.046 33.3698 111.504 32.4453C112.962 31.5208 114.59 31.0586 116.387 31.0586C118.04 31.0586 119.557 31.4688 120.938 32.2891C122.331 33.1094 123.444 34.2161 124.277 35.6094C125.124 36.9896 125.547 38.526 125.547 40.2188C125.547 40.8177 125.436 41.332 125.215 41.7617C125.007 42.1914 124.616 42.4062 124.043 42.4062H109.824C110.033 43.487 110.456 44.4896 111.094 45.4141C111.745 46.3255 112.559 47.0612 113.535 47.6211C114.525 48.181 115.625 48.4609 116.836 48.4609C117.865 48.4609 118.874 48.2331 119.863 47.7773C120.853 47.3216 121.667 46.6966 122.305 45.9023C122.591 45.5247 122.975 45.3359 123.457 45.3359C123.861 45.3359 124.206 45.4792 124.492 45.7656C124.779 46.0521 124.922 46.3971 124.922 46.8008C124.922 47.1523 124.805 47.4714 124.57 47.7578C123.633 48.9036 122.48 49.7956 121.113 50.4336C119.759 51.0716 118.346 51.3906 116.875 51.3906ZM122.559 39.5156C122.441 38.5 122.096 37.5755 121.523 36.7422C120.951 35.8958 120.221 35.2253 119.336 34.7305C118.451 34.2357 117.474 33.9883 116.406 33.9883C115.299 33.9883 114.29 34.2422 113.379 34.75C112.467 35.2578 111.706 35.9284 111.094 36.7617C110.495 37.5951 110.085 38.513 109.863 39.5156H122.559ZM138.555 51.4102C136.784 51.4102 135.215 50.9414 133.848 50.0039C132.48 49.0664 131.406 47.8359 130.625 46.3125C129.844 44.776 129.453 43.1289 129.453 41.3711C129.453 40.043 129.681 38.7604 130.137 37.5234C130.592 36.2865 131.237 35.1862 132.07 34.2227C132.904 33.2461 133.887 32.4714 135.02 31.8984C136.152 31.3255 137.389 31.0391 138.73 31.0391C140.007 31.0391 141.172 31.3581 142.227 31.9961C143.281 32.6341 144.206 33.3698 145 34.2031V25.375C145 24.9714 145.143 24.6263 145.43 24.3398C145.716 24.0534 146.061 23.9102 146.465 23.9102C146.882 23.9102 147.227 24.0534 147.5 24.3398C147.786 24.6263 147.93 24.9714 147.93 25.375V49.9648C147.93 50.3685 147.786 50.7135 147.5 51C147.214 51.2865 146.868 51.4297 146.465 51.4297C146.061 51.4297 145.729 51.2865 145.469 51C145.221 50.7135 145.098 50.3685 145.098 49.9648L145 48.0898C144.258 48.8451 143.34 49.5872 142.246 50.3164C141.152 51.0456 139.922 51.4102 138.555 51.4102ZM138.613 48.4805C139.941 48.4805 141.081 48.1224 142.031 47.4062C142.982 46.6901 143.711 45.7656 144.219 44.6328C144.727 43.5 144.98 42.3216 144.98 41.0977C144.98 39.8737 144.727 38.7214 144.219 37.6406C143.724 36.5599 143.008 35.681 142.07 35.0039C141.133 34.3138 140.007 33.9688 138.691 33.9688C137.428 33.9688 136.328 34.3333 135.391 35.0625C134.453 35.7786 133.724 36.7096 133.203 37.8555C132.682 38.9883 132.422 40.1797 132.422 41.4297C132.422 42.6667 132.676 43.8255 133.184 44.9062C133.704 45.974 134.427 46.8398 135.352 47.5039C136.289 48.1549 137.376 48.4805 138.613 48.4805ZM154.336 28.0117C153.776 28.0117 153.281 27.8099 152.852 27.4062C152.435 27.0026 152.227 26.5143 152.227 25.9414C152.227 25.3685 152.435 24.8802 152.852 24.4766C153.281 24.0729 153.776 23.8711 154.336 23.8711C154.909 23.8711 155.404 24.0729 155.82 24.4766C156.237 24.8802 156.445 25.3685 156.445 25.9414C156.445 26.5143 156.237 27.0026 155.82 27.4062C155.404 27.8099 154.909 28.0117 154.336 28.0117ZM152.91 32.25C152.91 31.9115 153.066 31.6185 153.379 31.3711C153.691 31.1107 153.984 30.9805 154.258 30.9805C154.714 30.9805 155.091 31.1172 155.391 31.3906C155.69 31.6641 155.84 32.0221 155.84 32.4648L155.879 49.9844C155.879 50.388 155.736 50.7331 155.449 51.0195C155.163 51.306 154.818 51.4492 154.414 51.4492C154.01 51.4492 153.665 51.2995 153.379 51C153.092 50.7135 152.949 50.3685 152.949 49.9648L152.91 32.25ZM160.742 41.1758C160.742 39.3659 161.172 37.6992 162.031 36.1758C162.891 34.6393 164.049 33.4023 165.508 32.4648C166.966 31.5273 168.594 31.0586 170.391 31.0586C171.719 31.0586 172.93 31.306 174.023 31.8008C175.117 32.2956 176.061 32.9466 176.855 33.7539C177.65 34.5612 178.262 35.4466 178.691 36.4102C178.796 36.6185 178.848 36.8268 178.848 37.0352C178.848 37.4388 178.704 37.7839 178.418 38.0703C178.132 38.3438 177.786 38.4805 177.383 38.4805C177.122 38.4805 176.862 38.4023 176.602 38.2461C176.341 38.0768 176.159 37.8685 176.055 37.6211C175.612 36.6445 174.896 35.7917 173.906 35.0625C172.917 34.3333 171.745 33.9688 170.391 33.9688C169.128 33.9688 167.988 34.3073 166.973 34.9844C165.957 35.6484 165.15 36.5339 164.551 37.6406C163.952 38.7344 163.652 39.9193 163.652 41.1953C163.652 42.4714 163.945 43.6628 164.531 44.7695C165.13 45.8633 165.938 46.7487 166.953 47.4258C167.982 48.0898 169.128 48.4219 170.391 48.4219C171.745 48.4219 172.917 48.0638 173.906 47.3477C174.909 46.6185 175.632 45.7656 176.074 44.7891C176.178 44.5417 176.361 44.3333 176.621 44.1641C176.882 43.9948 177.142 43.9102 177.402 43.9102C177.806 43.9102 178.151 44.0534 178.438 44.3398C178.724 44.6263 178.867 44.9714 178.867 45.375C178.867 45.5964 178.822 45.7982 178.73 45.9805C178.301 46.931 177.682 47.8164 176.875 48.6367C176.081 49.444 175.13 50.0951 174.023 50.5898C172.93 51.0846 171.719 51.332 170.391 51.332C168.581 51.332 166.947 50.8633 165.488 49.9258C164.03 48.9883 162.871 47.7513 162.012 46.2148C161.165 44.6654 160.742 42.9857 160.742 41.1758ZM192.324 30.9805C193.717 30.9805 194.967 31.3841 196.074 32.1914C197.194 32.9987 198.171 33.8516 199.004 34.75L199.18 32.2891C199.18 31.9115 199.284 31.5924 199.492 31.332C199.701 31.0586 199.993 30.9219 200.371 30.9219C200.749 30.9219 201.068 31.0586 201.328 31.332C201.602 31.5924 201.738 31.9115 201.738 32.2891V49.9453C201.738 50.3229 201.602 50.6484 201.328 50.9219C201.068 51.1823 200.749 51.3125 200.371 51.3125C199.993 51.3125 199.668 51.1823 199.395 50.9219C199.134 50.6484 199.004 50.3229 199.004 49.9453V47.7188C198.145 48.6562 197.122 49.5026 195.938 50.2578C194.766 51.013 193.529 51.3906 192.227 51.3906C190.885 51.3906 189.642 51.1172 188.496 50.5703C187.35 50.0104 186.348 49.2552 185.488 48.3047C184.629 47.3542 183.958 46.2734 183.477 45.0625C183.008 43.8385 182.773 42.556 182.773 41.2148C182.773 39.8867 183.008 38.6107 183.477 37.3867C183.958 36.1497 184.629 35.056 185.488 34.1055C186.361 33.1419 187.376 32.3802 188.535 31.8203C189.694 31.2604 190.957 30.9805 192.324 30.9805ZM199.102 41.0977C199.102 39.8346 198.796 38.6628 198.184 37.582C197.585 36.4883 196.771 35.6029 195.742 34.9258C194.727 34.2487 193.594 33.9102 192.344 33.9102C191.081 33.9102 189.948 34.2552 188.945 34.9453C187.943 35.6354 187.148 36.5404 186.562 37.6602C185.99 38.7669 185.703 39.9518 185.703 41.2148C185.703 42.4648 185.99 43.6432 186.562 44.75C187.135 45.8568 187.91 46.7552 188.887 47.4453C189.876 48.1224 190.99 48.4609 192.227 48.4609C193.477 48.4609 194.622 48.1159 195.664 47.4258C196.706 46.7227 197.539 45.8112 198.164 44.6914C198.789 43.5586 199.102 42.3607 199.102 41.0977ZM209.473 26.8984C209.473 26.4948 209.616 26.1497 209.902 25.8633C210.189 25.5768 210.534 25.4336 210.938 25.4336C211.341 25.4336 211.686 25.5768 211.973 25.8633C212.259 26.1497 212.402 26.4948 212.402 26.8984L212.383 31.2734L216.191 31.293C216.569 31.293 216.888 31.4297 217.148 31.7031C217.422 31.9635 217.559 32.2826 217.559 32.6602C217.559 33.0378 217.422 33.3633 217.148 33.6367C216.888 33.8971 216.569 34.0273 216.191 34.0273L212.383 34.0078L212.363 46.1953C212.363 46.8854 212.467 47.4453 212.676 47.875C212.884 48.2917 213.307 48.5 213.945 48.5C214.518 48.5 214.987 48.3958 215.352 48.1875C215.729 47.9661 216.159 47.8555 216.641 47.8555C217.044 47.8555 217.389 47.9987 217.676 48.2852C217.962 48.5716 218.105 48.9167 218.105 49.3203C218.105 49.8672 217.871 50.2969 217.402 50.6094C216.934 50.9219 216.38 51.1367 215.742 51.2539C215.117 51.3841 214.557 51.4492 214.062 51.4492C212.526 51.4492 211.367 50.9609 210.586 49.9844C209.818 48.9948 209.434 47.7188 209.434 46.1562L209.453 34.0273H206.445C206.068 34.0273 205.742 33.8971 205.469 33.6367C205.208 33.3633 205.078 33.0378 205.078 32.6602C205.078 32.2826 205.208 31.9635 205.469 31.7031C205.742 31.4297 206.068 31.293 206.445 31.293H209.453L209.473 26.8984ZM223.164 28.0117C222.604 28.0117 222.109 27.8099 221.68 27.4062C221.263 27.0026 221.055 26.5143 221.055 25.9414C221.055 25.3685 221.263 24.8802 221.68 24.4766C222.109 24.0729 222.604 23.8711 223.164 23.8711C223.737 23.8711 224.232 24.0729 224.648 24.4766C225.065 24.8802 225.273 25.3685 225.273 25.9414C225.273 26.5143 225.065 27.0026 224.648 27.4062C224.232 27.8099 223.737 28.0117 223.164 28.0117ZM221.738 32.25C221.738 31.9115 221.895 31.6185 222.207 31.3711C222.52 31.1107 222.812 30.9805 223.086 30.9805C223.542 30.9805 223.919 31.1172 224.219 31.3906C224.518 31.6641 224.668 32.0221 224.668 32.4648L224.707 49.9844C224.707 50.388 224.564 50.7331 224.277 51.0195C223.991 51.306 223.646 51.4492 223.242 51.4492C222.839 51.4492 222.493 51.2995 222.207 51C221.921 50.7135 221.777 50.3685 221.777 49.9648L221.738 32.25ZM239.316 30.9609C240.684 30.9609 241.96 31.2344 243.145 31.7812C244.329 32.3281 245.365 33.0833 246.25 34.0469C247.148 34.9974 247.845 36.0846 248.34 37.3086C248.848 38.5326 249.102 39.8281 249.102 41.1953C249.102 43.0052 248.672 44.6849 247.812 46.2344C246.953 47.7839 245.788 49.0404 244.316 50.0039C242.858 50.9544 241.217 51.4362 239.395 51.4492C237.546 51.4492 235.879 50.974 234.395 50.0234C232.91 49.0729 231.732 47.8229 230.859 46.2734C230 44.7109 229.57 43.0182 229.57 41.1953C229.57 39.8411 229.818 38.5521 230.312 37.3281C230.82 36.0911 231.517 34.9974 232.402 34.0469C233.288 33.0833 234.316 32.3281 235.488 31.7812C236.673 31.2344 237.949 30.9609 239.316 30.9609ZM239.316 33.8906C238.04 33.8906 236.888 34.2292 235.859 34.9062C234.831 35.5833 234.01 36.4753 233.398 37.582C232.799 38.6758 232.5 39.8672 232.5 41.1562C232.5 42.4583 232.799 43.6693 233.398 44.7891C233.997 45.9089 234.818 46.8138 235.859 47.5039C236.901 48.181 238.073 48.5195 239.375 48.5195C240.664 48.5065 241.816 48.1615 242.832 47.4844C243.861 46.7943 244.674 45.8958 245.273 44.7891C245.872 43.6823 246.172 42.4844 246.172 41.1953C246.172 39.9062 245.866 38.7083 245.254 37.6016C244.655 36.4818 243.835 35.5833 242.793 34.9062C241.764 34.2292 240.605 33.8906 239.316 33.8906ZM254.863 30.9414C255.267 30.9414 255.592 31.0846 255.84 31.3711C256.1 31.6576 256.23 32.0026 256.23 32.4062L256.328 34.7305C256.797 34.1576 257.337 33.5846 257.949 33.0117C258.574 32.4388 259.284 31.9635 260.078 31.5859C260.885 31.1953 261.784 31 262.773 31C264.505 31 265.892 31.4427 266.934 32.3281C267.988 33.2135 268.75 34.3789 269.219 35.8242C269.701 37.2565 269.941 38.806 269.941 40.4727L269.922 49.9453C269.922 50.349 269.779 50.694 269.492 50.9805C269.206 51.2669 268.861 51.4102 268.457 51.4102C268.053 51.4102 267.708 51.2669 267.422 50.9805C267.135 50.681 266.992 50.3294 266.992 49.9258L267.012 40.4727C267.012 39.3138 266.895 38.2396 266.66 37.25C266.426 36.2604 266.003 35.4596 265.391 34.8477C264.779 34.2357 263.906 33.9297 262.773 33.9297C260.651 33.9297 259.049 34.4961 257.969 35.6289C256.888 36.7617 256.348 38.3568 256.348 40.4141V49.9844C256.348 50.388 256.204 50.7331 255.918 51.0195C255.632 51.306 255.286 51.4492 254.883 51.4492C254.479 51.4492 254.134 51.2995 253.848 51C253.561 50.7135 253.418 50.3685 253.418 49.9648L253.398 32.4258C253.398 32.0091 253.535 31.6576 253.809 31.3711C254.095 31.0846 254.447 30.9414 254.863 30.9414Z" fill="black"/>
<path d="M462.27 19.1445C462.686 19.1445 463.031 19.2878 463.305 19.5742C463.591 19.8607 463.734 20.2057 463.734 20.6094C463.734 20.9349 463.63 21.2279 463.422 21.4883L455.297 32.2891L464.262 44.1641C464.47 44.4245 464.574 44.7305 464.574 45.082C464.574 45.4857 464.431 45.8307 464.145 46.1172C463.858 46.4036 463.513 46.5469 463.109 46.5469C462.615 46.5469 462.224 46.3451 461.938 45.9414L453.48 34.7305L445.082 45.9023C444.796 46.306 444.398 46.5078 443.891 46.5078C443.487 46.5078 443.142 46.3646 442.855 46.0781C442.569 45.7917 442.426 45.4466 442.426 45.043C442.426 44.7044 442.53 44.4049 442.738 44.1445L451.645 32.3086L443.383 21.2539C443.174 20.9935 443.07 20.694 443.07 20.3555C443.07 19.9518 443.214 19.6068 443.5 19.3203C443.786 19.0339 444.132 18.8906 444.535 18.8906C445.043 18.8906 445.44 19.0924 445.727 19.4961L453.461 29.8672L461.078 19.7305C461.195 19.5612 461.371 19.4245 461.605 19.3203C461.84 19.2031 462.061 19.1445 462.27 19.1445Z" fill="black"/>
<path d="M72.0809 106.719C72.0809 106.404 72.1891 106.134 72.4055 105.907C72.6317 105.681 72.8972 105.568 73.2021 105.568H87.9692C88.2741 105.568 88.5347 105.671 88.751 105.878C88.9674 106.075 89.0756 106.325 89.0756 106.63C89.0756 106.935 88.9674 107.206 88.751 107.442C88.5347 107.668 88.2691 107.781 87.9544 107.781H81.6699V125.144C81.6699 125.449 81.5568 125.71 81.3306 125.926C81.1044 126.143 80.8389 126.251 80.534 126.251C80.2291 126.251 79.9734 126.143 79.7669 125.926C79.5603 125.71 79.4571 125.449 79.4571 125.144V107.781H73.1873C72.8825 107.781 72.6218 107.683 72.4055 107.486C72.1891 107.279 72.0809 107.024 72.0809 106.719ZM92.8817 108.637C92.4588 108.637 92.0851 108.484 91.7605 108.179C91.4458 107.874 91.2884 107.505 91.2884 107.073C91.2884 106.64 91.4458 106.271 91.7605 105.966C92.0851 105.661 92.4588 105.509 92.8817 105.509C93.3144 105.509 93.6882 105.661 94.0029 105.966C94.3176 106.271 94.4749 106.64 94.4749 107.073C94.4749 107.505 94.3176 107.874 94.0029 108.179C93.6882 108.484 93.3144 108.637 92.8817 108.637ZM91.8048 111.838C91.8048 111.582 91.9228 111.361 92.1588 111.174C92.3949 110.977 92.6162 110.879 92.8227 110.879C93.1669 110.879 93.4521 110.982 93.6783 111.189C93.9045 111.395 94.0176 111.666 94.0176 112L94.0471 125.233C94.0471 125.538 93.9389 125.798 93.7226 126.015C93.5062 126.231 93.2456 126.339 92.9407 126.339C92.6358 126.339 92.3752 126.226 92.1588 126C91.9425 125.784 91.8343 125.523 91.8343 125.218L91.8048 111.838ZM109.257 114.036C109.581 113.515 109.98 113.008 110.452 112.516C110.924 112.025 111.484 111.621 112.133 111.307C112.783 110.992 113.525 110.835 114.361 110.835C115.61 110.835 116.603 111.135 117.341 111.735C118.079 112.325 118.61 113.136 118.934 114.169C119.269 115.201 119.436 116.372 119.436 117.68L119.451 125.115C119.451 125.42 119.342 125.68 119.126 125.897C118.91 126.113 118.649 126.221 118.344 126.221C118.039 126.221 117.779 126.113 117.562 125.897C117.346 125.671 117.238 125.405 117.238 125.1L117.223 117.68C117.223 116.873 117.144 116.121 116.987 115.423C116.839 114.724 116.559 114.159 116.146 113.726C115.733 113.293 115.128 113.077 114.332 113.077C113.299 113.077 112.453 113.298 111.794 113.741C111.135 114.174 110.653 114.744 110.348 115.452C110.044 116.15 109.886 116.893 109.876 117.68L109.847 125.159C109.847 125.464 109.739 125.725 109.522 125.941C109.306 126.157 109.045 126.266 108.74 126.266C108.436 126.266 108.175 126.157 107.959 125.941C107.742 125.715 107.634 125.449 107.634 125.144L107.619 117.68C107.619 116.854 107.541 116.091 107.383 115.393C107.226 114.695 106.931 114.134 106.498 113.711C106.075 113.288 105.461 113.077 104.654 113.077C103.248 113.077 102.161 113.51 101.394 114.375C100.637 115.231 100.258 116.332 100.258 117.68L100.243 125.189C100.243 125.494 100.135 125.754 99.9186 125.97C99.7022 126.187 99.4416 126.295 99.1367 126.295C98.8318 126.295 98.5712 126.187 98.3548 125.97C98.1384 125.744 98.0303 125.479 98.0303 125.174L98.0155 111.897C98.0352 111.592 98.1483 111.341 98.3548 111.144C98.5613 110.938 98.8171 110.835 99.1219 110.835C99.4366 110.835 99.6874 110.938 99.8743 111.144C100.071 111.341 100.164 111.597 100.155 111.912L100.228 113.652C100.474 113.229 100.818 112.802 101.261 112.369C101.713 111.936 102.225 111.572 102.795 111.277C103.376 110.982 103.98 110.835 104.61 110.835C105.8 110.835 106.778 111.159 107.546 111.808C108.322 112.448 108.893 113.19 109.257 114.036ZM130.353 126.295C128.927 126.295 127.633 125.941 126.473 125.233C125.322 124.525 124.407 123.581 123.729 122.4C123.05 121.21 122.711 119.907 122.711 118.491C122.711 117.144 123.031 115.9 123.67 114.759C124.319 113.608 125.194 112.684 126.296 111.985C127.397 111.287 128.627 110.938 129.984 110.938C131.233 110.938 132.379 111.248 133.421 111.867C134.473 112.487 135.314 113.323 135.944 114.375C136.583 115.418 136.903 116.578 136.903 117.857C136.903 118.309 136.819 118.698 136.652 119.022C136.494 119.347 136.199 119.509 135.767 119.509H125.027C125.184 120.325 125.504 121.083 125.986 121.781C126.478 122.469 127.092 123.025 127.83 123.448C128.577 123.871 129.408 124.082 130.323 124.082C131.1 124.082 131.862 123.91 132.61 123.566C133.357 123.222 133.972 122.75 134.454 122.15C134.67 121.864 134.96 121.722 135.324 121.722C135.629 121.722 135.89 121.83 136.106 122.046C136.322 122.263 136.431 122.523 136.431 122.828C136.431 123.094 136.342 123.335 136.165 123.551C135.457 124.417 134.587 125.09 133.554 125.572C132.531 126.054 131.464 126.295 130.353 126.295ZM134.646 117.326C134.557 116.559 134.296 115.86 133.864 115.231C133.431 114.592 132.88 114.085 132.211 113.711C131.543 113.338 130.805 113.151 129.999 113.151C129.163 113.151 128.4 113.343 127.712 113.726C127.023 114.11 126.448 114.616 125.986 115.246C125.534 115.875 125.224 116.568 125.057 117.326H134.646ZM141.977 115.88C141.407 115.88 140.91 115.678 140.487 115.275C140.065 114.872 139.853 114.385 139.853 113.815C139.853 113.244 140.065 112.762 140.487 112.369C140.91 111.966 141.407 111.764 141.977 111.764C142.558 111.764 143.059 111.966 143.482 112.369C143.905 112.762 144.117 113.244 144.117 113.815C144.117 114.385 143.905 114.872 143.482 115.275C143.059 115.678 142.558 115.88 141.977 115.88ZM141.992 124.097C141.422 124.097 140.925 123.895 140.502 123.492C140.079 123.089 139.868 122.602 139.868 122.032C139.868 121.461 140.079 120.979 140.502 120.586C140.925 120.183 141.422 119.981 141.992 119.981C142.572 119.981 143.074 120.183 143.497 120.586C143.92 120.979 144.131 121.461 144.131 122.032C144.131 122.602 143.92 123.089 143.497 123.492C143.074 123.895 142.572 124.097 141.992 124.097ZM168.709 105.716C169.023 105.716 169.284 105.824 169.491 106.04C169.707 106.256 169.815 106.517 169.815 106.822C169.815 107.068 169.736 107.289 169.579 107.486L163.442 115.644L170.213 124.613C170.371 124.81 170.449 125.041 170.449 125.307C170.449 125.612 170.341 125.872 170.125 126.089C169.909 126.305 169.648 126.413 169.343 126.413C168.969 126.413 168.674 126.261 168.458 125.956L162.07 117.488L155.727 125.926C155.51 126.231 155.21 126.384 154.827 126.384C154.522 126.384 154.261 126.275 154.045 126.059C153.828 125.843 153.72 125.582 153.72 125.277C153.72 125.021 153.799 124.795 153.956 124.599L160.683 115.659L154.443 107.309C154.286 107.112 154.207 106.886 154.207 106.63C154.207 106.325 154.315 106.065 154.532 105.848C154.748 105.632 155.009 105.524 155.314 105.524C155.697 105.524 155.997 105.676 156.213 105.981L162.055 113.815L167.809 106.158C167.897 106.03 168.03 105.927 168.207 105.848C168.384 105.76 168.551 105.716 168.709 105.716ZM186.913 105.716C187.228 105.716 187.488 105.824 187.695 106.04C187.911 106.256 188.019 106.517 188.019 106.822C188.019 107.068 187.941 107.289 187.783 107.486L181.646 115.644L188.418 124.613C188.575 124.81 188.654 125.041 188.654 125.307C188.654 125.612 188.546 125.872 188.329 126.089C188.113 126.305 187.852 126.413 187.547 126.413C187.174 126.413 186.879 126.261 186.662 125.956L180.274 117.488L173.931 125.926C173.715 126.231 173.415 126.384 173.031 126.384C172.726 126.384 172.466 126.275 172.249 126.059C172.033 125.843 171.925 125.582 171.925 125.277C171.925 125.021 172.003 124.795 172.161 124.599L178.888 115.659L172.648 107.309C172.49 107.112 172.411 106.886 172.411 106.63C172.411 106.325 172.52 106.065 172.736 105.848C172.952 105.632 173.213 105.524 173.518 105.524C173.901 105.524 174.201 105.676 174.418 105.981L180.26 113.815L186.013 106.158C186.102 106.03 186.234 105.927 186.411 105.848C186.588 105.76 186.756 105.716 186.913 105.716ZM192.991 115.88C192.421 115.88 191.924 115.678 191.501 115.275C191.078 114.872 190.867 114.385 190.867 113.815C190.867 113.244 191.078 112.762 191.501 112.369C191.924 111.966 192.421 111.764 192.991 111.764C193.571 111.764 194.073 111.966 194.496 112.369C194.919 112.762 195.13 113.244 195.13 113.815C195.13 114.385 194.919 114.872 194.496 115.275C194.073 115.678 193.571 115.88 192.991 115.88ZM193.006 124.097C192.435 124.097 191.939 123.895 191.516 123.492C191.093 123.089 190.881 122.602 190.881 122.032C190.881 121.461 191.093 120.979 191.516 120.586C191.939 120.183 192.435 119.981 193.006 119.981C193.586 119.981 194.088 120.183 194.51 120.586C194.933 120.979 195.145 121.461 195.145 122.032C195.145 122.602 194.933 123.089 194.51 123.492C194.088 123.895 193.586 124.097 193.006 124.097ZM212.346 105.716C212.661 105.716 212.921 105.824 213.128 106.04C213.344 106.256 213.452 106.517 213.452 106.822C213.452 107.068 213.374 107.289 213.216 107.486L207.079 115.644L213.851 124.613C214.008 124.81 214.087 125.041 214.087 125.307C214.087 125.612 213.979 125.872 213.762 126.089C213.546 126.305 213.285 126.413 212.98 126.413C212.607 126.413 212.312 126.261 212.095 125.956L205.707 117.488L199.364 125.926C199.148 126.231 198.848 126.384 198.464 126.384C198.159 126.384 197.899 126.275 197.682 126.059C197.466 125.843 197.358 125.582 197.358 125.277C197.358 125.021 197.436 124.795 197.594 124.599L204.321 115.659L198.081 107.309C197.923 107.112 197.844 106.886 197.844 106.63C197.844 106.325 197.953 106.065 198.169 105.848C198.385 105.632 198.646 105.524 198.951 105.524C199.334 105.524 199.634 105.676 199.851 105.981L205.693 113.815L211.446 106.158C211.535 106.03 211.667 105.927 211.844 105.848C212.021 105.76 212.189 105.716 212.346 105.716ZM230.55 105.716C230.865 105.716 231.126 105.824 231.332 106.04C231.549 106.256 231.657 106.517 231.657 106.822C231.657 107.068 231.578 107.289 231.421 107.486L225.284 115.644L232.055 124.613C232.213 124.81 232.291 125.041 232.291 125.307C232.291 125.612 232.183 125.872 231.967 126.089C231.75 126.305 231.49 126.413 231.185 126.413C230.811 126.413 230.516 126.261 230.3 125.956L223.912 117.488L217.568 125.926C217.352 126.231 217.052 126.384 216.668 126.384C216.364 126.384 216.103 126.275 215.887 126.059C215.67 125.843 215.562 125.582 215.562 125.277C215.562 125.021 215.641 124.795 215.798 124.599L222.525 115.659L216.285 107.309C216.128 107.112 216.049 106.886 216.049 106.63C216.049 106.325 216.157 106.065 216.373 105.848C216.59 105.632 216.85 105.524 217.155 105.524C217.539 105.524 217.839 105.676 218.055 105.981L223.897 113.815L229.651 106.158C229.739 106.03 229.872 105.927 230.049 105.848C230.226 105.76 230.393 105.716 230.55 105.716ZM235.935 126.221C235.63 126.221 235.37 126.113 235.153 125.897C234.937 125.68 234.829 125.42 234.829 125.115V125.1L234.799 106.704C234.799 106.507 234.897 106.276 235.094 106.011C235.291 105.745 235.556 105.607 235.891 105.598L240.538 105.568C241.944 105.568 243.203 105.794 244.314 106.247C245.426 106.699 246.306 107.387 246.955 108.312C247.604 109.227 247.929 110.387 247.929 111.794C247.929 113.416 247.589 114.724 246.911 115.718C246.232 116.701 245.288 117.424 244.078 117.886C242.878 118.339 241.487 118.589 239.903 118.639L237.027 118.698L237.041 125.1V125.115C237.041 125.42 236.933 125.68 236.717 125.897C236.501 126.113 236.24 126.221 235.935 126.221ZM245.716 111.808C245.716 110.363 245.229 109.335 244.255 108.725C243.282 108.105 242.008 107.796 240.434 107.796H237.012L237.027 116.485L239.859 116.426C241.039 116.396 242.067 116.244 242.942 115.968C243.818 115.693 244.496 115.226 244.978 114.567C245.47 113.898 245.716 112.979 245.716 111.808ZM251.174 106.674C251.174 106.399 251.277 106.148 251.484 105.922C251.69 105.686 251.956 105.568 252.281 105.568C252.477 105.568 252.669 105.632 252.856 105.76C253.043 105.888 253.185 106.035 253.284 106.202L261.516 119.671L269.836 106.114C270.052 105.76 270.367 105.583 270.78 105.583C271.085 105.583 271.345 105.691 271.562 105.907C271.778 106.124 271.886 106.384 271.886 106.689V125.174C271.886 125.479 271.778 125.739 271.562 125.956C271.345 126.172 271.085 126.28 270.78 126.28C270.475 126.28 270.214 126.172 269.998 125.956C269.782 125.739 269.674 125.479 269.674 125.174V110.613L262.46 122.371C262.243 122.725 261.929 122.902 261.516 122.902C261.102 122.902 260.788 122.725 260.571 122.371L253.387 110.628V125.115C253.387 125.42 253.279 125.68 253.062 125.897C252.846 126.113 252.585 126.221 252.281 126.221C251.976 126.221 251.715 126.113 251.499 125.897C251.282 125.68 251.174 125.42 251.174 125.115V106.674Z" fill="#747474"/>
</svg>
